<?xml version="1.0" encoding="utf-8"?>
<!-- Generator: Adobe Illustrator 21.1.0, SVG Export Plug-In . SVG Version: 6.00 Build 0)  -->
<svg version="1.1" id="Camada_1" xmlns="http://www.w3.org/2000/svg" xmlns:xlink="http://www.w3.org/1999/xlink" x="0px" y="0px"
	 viewBox="0 0 463 124" style="enable-background:new 0 0 463 124;" xml:space="preserve">
<polygon points="0,0 0,122 63,122 63,106.3 16.7,106.3 16.7,0 "/>
<g>
	<path d="M122.1,122v-8.4c-3.8,5.9-10.9,10.4-19.7,10.4c-16.6,0-25.6-9-25.6-26.2V52.5h15.9v42.3c0,7.9,4.5,14.5,13.2,14.5
		c11,0,16.2-10.9,16.2-19.4V52.5h15.9V122H122.1z"/>
	<path d="M158,122V52.5h15.9v8.4c4.3-6.7,11.7-10.4,19.7-10.4c14.9,0,25.6,9,25.6,26.2V122h-15.9V79.7c0-8.5-4.2-14.5-13.2-14.5
		c-11.9,0-16.2,10.9-16.2,19.4V122H158z"/>
	<path d="M280.4,122v-5c-6.4,4.8-13.4,7-21.7,7c-17.6,0-26.1-10.5-26.1-23.4c0-16.4,16.4-25.4,37.8-25.4h10.4v-1.7
		c0-6-3.7-9.7-13.9-9.7c-8.7,0-15.4,1.2-21.4,3.8l-5.5-11.9c6.5-3.8,17.4-5.4,25.1-5.4c19.4,0,31.3,5.7,31.3,20.7V122H280.4z
		 M280.4,88.1h-4.5c-18.1,0-27.1,3.7-27.1,12.5c0,6.7,7.5,9.4,14.2,9.4c7,0,11-1.2,17.4-5.5V88.1z"/>
	<path d="M314.7,122V52.5h15.9v8.4c5-6.9,11.4-10.4,18.7-10.4c5.5,0,9.4,1.7,13.7,5.2L355.8,69c-3.7-2.7-7-3.5-10-3.5
		c-8.9,0-15.2,7.9-15.2,21.2V122H314.7z"/>
	<path d="M383.1,89.3c0.5,11.2,8.4,20.1,20.6,20.1c10.9,0,16.9-3.5,23.2-8.4l9.7,10c-8.7,7.5-18.4,13-33.1,13
		c-20.4,0-36.3-14-36.3-37.4c0-20.4,14.7-36.1,35.6-36.1c20.9,0,34.9,16.2,34.9,38.8H383.1z M420.5,77.2c-2.5-8-9.5-12.5-18.4-12.5
		c-9,0-16.6,4.8-18.4,12.5H420.5z"/>
	<path d="M438.7,12.2c0-6.7,5.4-12.2,12.2-12.2c6.7,0,12.1,5.4,12.1,12.2c0,6.7-5.4,12.1-12.1,12.1
		C444.2,24.3,438.7,18.9,438.7,12.2 M450.9,22.6c5.7,0,10.4-4.6,10.4-10.4c0-5.7-4.7-10.4-10.4-10.4c-5.7,0-10.4,4.7-10.4,10.4
		C440.5,17.9,445.1,22.6,450.9,22.6 M446.6,18.9V4.8h4.7c2.6,0,4.3,1.9,4.3,4.2c0,2.3-1.9,4-4,4l5.2,5.9h-2.6l-5.5-6.4v6.4H446.6z
		 M448.7,11.3h2.3c1.5,0,2.6-0.9,2.6-2.4c0-1-0.9-2.1-2.3-2.1h-2.5V11.3z"/>
</g>
</svg>
