<?xml version="1.0" encoding="utf-8"?>
<!-- Generator: Adobe Illustrator 21.1.0, SVG Export Plug-In . SVG Version: 6.00 Build 0)  -->
<svg version="1.1" id="Camada_1" xmlns="http://www.w3.org/2000/svg" xmlns:xlink="http://www.w3.org/1999/xlink" x="0px" y="0px"
	 viewBox="0 0 120.9 9.5" style="enable-background:new 0 0 120.9 9.5;" xml:space="preserve">
<style type="text/css">
	.st0{clip-path:url(#SVGID_2_);fill:#35878C;}
	.st1{clip-path:url(#SVGID_2_);fill:#71C377;}
	.st2{clip-path:url(#SVGID_2_);fill:#6EBFD5;}
</style>
<g>
	<defs>
		<rect id="SVGID_1_" y="0" width="120.9" height="9.5"/>
	</defs>
	<clipPath id="SVGID_2_">
		<use xlink:href="#SVGID_1_"  style="overflow:visible;"/>
	</clipPath>
	<path class="st0" d="M4.3,9.4H0V0.2h4c1.9,0,3.2,0.9,3.2,2.5c0,0.9-0.6,1.7-1.4,2c1.1,0.2,1.9,1.1,1.9,2.2C7.7,8.4,6.4,9.4,4.3,9.4
		 M3.4,2.2H2.9v1.7h0.5c0.8,0,1.3-0.3,1.3-0.9C4.6,2.4,4.2,2.2,3.4,2.2 M3.8,5.6H2.9v1.7h0.9C4.7,7.3,5,7,5,6.4
		C5,5.9,4.6,5.6,3.8,5.6"/>
	<path class="st0" d="M16.3,9.4l-0.5-1.7h-2.7l-0.5,1.7H9.6l3.2-9.2h3.3l3.2,9.2H16.3z M14.4,3.1l-0.7,2.3h1.4L14.4,3.1z"/>
	<path class="st0" d="M26,9.5c-2.6,0-4.5-1.3-4.5-4.4v-5h3.1v5.3c0,1,0.5,1.6,1.4,1.6c0.9,0,1.4-0.6,1.4-1.6V0.2h3.1v5
		C30.5,8.2,28.5,9.5,26,9.5"/>
	<path class="st0" d="M36.8,9.5c-1.5,0-2.8-0.5-3.7-1.3l1.2-2c0.9,0.7,1.6,1,2.4,1c0.4,0,0.8-0.2,0.8-0.5c0-0.4-0.4-0.6-1.5-0.9
		c-1.7-0.5-2.5-1.2-2.5-2.8c0-2,1.6-3.1,3.8-3.1c1.2,0,2.4,0.4,3,0.9l-1.2,2c-0.6-0.5-1.2-0.7-1.9-0.7c-0.6,0-0.8,0.3-0.8,0.5
		c0,0.3,0.2,0.5,1.4,0.8c1.7,0.5,2.6,1.1,2.6,2.9C40.4,8.3,39,9.5,36.8,9.5"/>
	<path class="st0" d="M47.8,9.5c-2.8,0-4.8-2-4.8-4.7C43,2,45.1,0,47.8,0c1.5,0,2.5,0.6,3.3,1.3l-1.5,2.1c-0.5-0.5-1-0.9-1.8-0.9
		c-1,0-1.8,0.9-1.8,2.2S46.7,7,48,7c0.7,0,1.3-0.3,1.9-0.8l1.5,2C50.4,9,49.4,9.5,47.8,9.5"/>
	<polygon class="st0" points="59.6,9.4 59.6,6.2 57.3,6.2 57.3,9.4 54.2,9.4 54.2,0.2 57.3,0.2 57.3,3.6 59.6,3.6 59.6,0.2 
		62.7,0.2 62.7,9.4 	"/>
	<polygon class="st0" points="80.1,9.4 80.1,0.2 83.1,0.2 83.1,7 86.1,7 86.1,9.4 	"/>
	<path class="st0" d="M92.7,9.5c-2.9,0-5-2-5-4.8c0-2.8,2.1-4.8,5-4.8c2.9,0,5,2,5,4.8C97.7,7.5,95.6,9.5,92.7,9.5 M92.7,2.5
		c-1.1,0-1.9,1-1.9,2.3s0.8,2.3,2,2.3c1.1,0,1.9-1,1.9-2.3C94.7,3.5,93.9,2.5,92.7,2.5"/>
	<polygon class="st0" points="107.2,9.4 107.2,4.9 105.8,7.6 104.4,7.6 102.9,4.9 102.9,9.4 100,9.4 100,0.2 103,0.2 105.1,3.8 
		107,0.2 110.3,0.2 110.3,9.4 	"/>
	<path class="st0" d="M117.5,9.4h-4.3V0.2h4c1.9,0,3.2,0.9,3.2,2.5c0,0.9-0.6,1.7-1.4,2c1.1,0.2,1.9,1.1,1.9,2.2
		C120.9,8.4,119.6,9.4,117.5,9.4 M116.6,2.2h-0.5v1.7h0.5c0.8,0,1.3-0.3,1.3-0.9C117.8,2.4,117.4,2.2,116.6,2.2 M117,5.6h-0.9v1.7
		h0.9c0.9,0,1.2-0.3,1.2-0.9C118.2,5.9,117.8,5.6,117,5.6"/>
	<rect x="69.9" y="3.3" class="st0" width="3" height="3"/>
	<rect x="69.9" y="0.2" class="st1" width="3" height="3.1"/>
	<rect x="69.9" y="6.3" class="st1" width="3" height="3.1"/>
	<rect x="66.8" y="3.3" class="st2" width="3.1" height="3"/>
	<rect x="72.9" y="3.3" class="st2" width="3.1" height="3"/>
</g>
</svg>
